<svg xmlns="http://www.w3.org/2000/svg" viewBox="0 0 22 22">
    <path d="M11,0C4.924,0,0,4.924,0,11s4.924,11,11,11,11-4.924,11-11S17.076,0,11,0Zm0,20.625c-2.03,0-3.912-.635-5.466-1.712,.176-2.117,1.934-3.788,4.091-3.788h2.75c2.159,0,3.916,1.673,4.091,3.788-1.556,1.076-3.438,1.712-5.466,1.712Zm6.69-2.72c-.606-2.38-2.75-4.155-5.315-4.155h-2.75c-2.567,0-4.709,1.775-5.315,4.156-1.806-1.788-2.935-4.199-2.935-6.906C1.375,5.693,5.693,1.375,11,1.375s9.625,4.318,9.625,9.625c0,2.707-1.13,5.118-2.935,6.905ZM11,5.5c-1.899,0-3.437,1.538-3.437,3.438s1.538,3.438,3.437,3.438,3.437-1.539,3.437-3.438-1.538-3.438-3.437-3.438Zm0,5.5c-1.139,0-2.062-.924-2.062-2.062s.924-2.062,2.062-2.062,2.062,.925,2.062,2.062-.924,2.062-2.062,2.062Z" fill="#fff"/>
</svg>