<svg version="1.1" xmlns="http://www.w3.org/2000/svg" x="0px" y="0px" viewBox="0 0 100 100">
	<path fill="#ffffff" d="M50.024,99.982c-9.787,0-18.108-6.643-20.435-15.87H4.5v-9.336c0-4.696,2.283-6.755,4.272-8.026
		c4.618-2.947,7.429-6.431,8.598-10.648c0.364-1.314,0.56-2.885,0.583-4.672c0.085-6.694,0.266-12.747,1.617-19.044
		c1.1-5.123,2.782-9.371,5.144-12.984c3.404-5.205,7.964-8.761,13.9-10.824c0.695-2.411,2.111-4.485,4.171-6.08
		c2.443-1.887,5.355-2.721,8.408-2.42c4.974,0.495,8.852,3.81,10.193,8.497c0.286,0.095,0.571,0.196,0.862,0.303
		c7.274,2.701,12.611,8.037,15.867,15.861c2.129,5.126,3.272,10.683,3.705,18.021c0.198,3.342,0.266,6.07,0.212,8.583
		c-0.101,4.791,1.571,8.672,5.263,12.209c1.15,1.104,2.575,2.119,4.083,3.194c0.416,0.296,0.831,0.591,1.243,0.89
		c2.446,1.777,2.914,4.05,2.877,5.645L95.483,84.11H70.459C68.133,93.339,59.811,99.982,50.024,99.982z M11.04,77.572h24.214
		l0.315,2.919c0.797,7.383,7.01,12.951,14.455,12.951s13.658-5.568,14.456-12.951l0.315-2.919h24.16l0.006-4.37l-0.003-0.139
		c-0.016-0.005-0.07-0.055-0.178-0.133c-0.392-0.284-0.79-0.569-1.188-0.852c-1.715-1.221-3.33-2.371-4.822-3.804
		c-4.965-4.759-7.412-10.502-7.274-17.069c0.049-2.335-0.015-4.895-0.203-8.059c-0.388-6.576-1.379-11.478-3.215-15.896
		c-2.53-6.08-6.602-10.198-12.102-12.24c-0.731-0.271-1.496-0.504-2.348-0.758l-2.08-0.622l-0.235-2.158
		c-0.295-2.71-2.166-4.628-4.767-4.887c-1.387-0.139-2.649,0.227-3.76,1.086c-1.246,0.964-1.929,2.198-2.088,3.773l-0.224,2.218
		l-2.147,0.602c-5.38,1.508-9.238,4.278-12.139,8.717c-1.914,2.929-3.296,6.455-4.224,10.778c-1.226,5.707-1.391,11.418-1.472,17.756
		c-0.031,2.347-0.306,4.477-0.82,6.332c-1.617,5.846-5.34,10.56-11.382,14.416c-0.807,0.516-1.251,0.8-1.251,2.513L11.04,77.572
		L11.04,77.572L11.04,77.572z"/>
</svg>